<mxfile host="app.diagrams.net" modified="2023-09-03T16:51:39.610Z" agent="Mozilla/5.0 (Windows NT 10.0; Win64; x64; rv:109.0) Gecko/20100101 Firefox/117.0" etag="as3gTu_nDdv2Dm2qvhf9" version="21.7.2" type="github">
  <diagram name="Page-1" id="B4-o310UFiQVhGqINpC7">
    <mxGraphModel dx="1500" dy="1209" grid="0" gridSize="10" guides="1" tooltips="1" connect="1" arrows="1" fold="1" page="0" pageScale="1" pageWidth="850" pageHeight="1100" math="0" shadow="0">
      <root>
        <mxCell id="0" />
        <mxCell id="1" parent="0" />
        <mxCell id="crRVYx3Tnt2rc7D0dL9c-1" value="" style="rounded=0;whiteSpace=wrap;html=1;sketch=1;hachureGap=4;jiggle=2;curveFitting=1;fontFamily=Architects Daughter;fontSource=https%3A%2F%2Ffonts.googleapis.com%2Fcss%3Ffamily%3DArchitects%2BDaughter;fontSize=20;fillColor=#ffe6cc;strokeColor=#d79b00;" vertex="1" parent="1">
          <mxGeometry x="11" y="70" width="474" height="60" as="geometry" />
        </mxCell>
        <mxCell id="crRVYx3Tnt2rc7D0dL9c-3" value="" style="rounded=0;whiteSpace=wrap;html=1;sketch=1;hachureGap=4;jiggle=2;curveFitting=1;fontFamily=Architects Daughter;fontSource=https%3A%2F%2Ffonts.googleapis.com%2Fcss%3Ffamily%3DArchitects%2BDaughter;fontSize=20;fillColor=#dae8fc;strokeColor=#6c8ebf;" vertex="1" parent="1">
          <mxGeometry x="11" y="286" width="474" height="60" as="geometry" />
        </mxCell>
        <mxCell id="crRVYx3Tnt2rc7D0dL9c-4" value="" style="endArrow=none;html=1;rounded=0;sketch=1;hachureGap=4;jiggle=2;curveFitting=1;fontFamily=Architects Daughter;fontSource=https%3A%2F%2Ffonts.googleapis.com%2Fcss%3Ffamily%3DArchitects%2BDaughter;fontSize=16;entryX=0;entryY=0;entryDx=0;entryDy=0;exitX=0;exitY=1;exitDx=0;exitDy=0;" edge="1" parent="1" source="crRVYx3Tnt2rc7D0dL9c-3" target="crRVYx3Tnt2rc7D0dL9c-1">
          <mxGeometry width="50" height="50" relative="1" as="geometry">
            <mxPoint x="11" y="280" as="sourcePoint" />
            <mxPoint x="61" y="230" as="targetPoint" />
          </mxGeometry>
        </mxCell>
        <mxCell id="crRVYx3Tnt2rc7D0dL9c-5" value="Conduction band" style="text;html=1;strokeColor=none;fillColor=none;align=center;verticalAlign=middle;whiteSpace=wrap;rounded=0;fontSize=20;fontFamily=Architects Daughter;" vertex="1" parent="1">
          <mxGeometry x="180" y="85" width="166" height="30" as="geometry" />
        </mxCell>
        <mxCell id="crRVYx3Tnt2rc7D0dL9c-6" value="valence band" style="text;html=1;strokeColor=none;fillColor=none;align=center;verticalAlign=middle;whiteSpace=wrap;rounded=0;fontSize=20;fontFamily=Architects Daughter;" vertex="1" parent="1">
          <mxGeometry x="180" y="301" width="166" height="30" as="geometry" />
        </mxCell>
        <mxCell id="crRVYx3Tnt2rc7D0dL9c-7" value="" style="endArrow=none;html=1;rounded=0;sketch=1;hachureGap=4;jiggle=2;curveFitting=1;fontFamily=Architects Daughter;fontSource=https%3A%2F%2Ffonts.googleapis.com%2Fcss%3Ffamily%3DArchitects%2BDaughter;fontSize=16;" edge="1" parent="1">
          <mxGeometry width="50" height="50" relative="1" as="geometry">
            <mxPoint x="11" y="211" as="sourcePoint" />
            <mxPoint x="484" y="209" as="targetPoint" />
          </mxGeometry>
        </mxCell>
        <mxCell id="crRVYx3Tnt2rc7D0dL9c-8" value="Fermi level" style="text;html=1;strokeColor=none;fillColor=none;align=center;verticalAlign=middle;whiteSpace=wrap;rounded=0;fontSize=20;fontFamily=Architects Daughter;" vertex="1" parent="1">
          <mxGeometry x="485" y="195" width="96" height="30" as="geometry" />
        </mxCell>
        <mxCell id="crRVYx3Tnt2rc7D0dL9c-9" value="" style="rounded=0;whiteSpace=wrap;html=1;sketch=1;hachureGap=4;jiggle=2;curveFitting=1;fontFamily=Architects Daughter;fontSource=https%3A%2F%2Ffonts.googleapis.com%2Fcss%3Ffamily%3DArchitects%2BDaughter;fontSize=20;fillColor=#ffe6cc;strokeColor=#d79b00;" vertex="1" parent="1">
          <mxGeometry x="11" y="-358" width="474" height="60" as="geometry" />
        </mxCell>
        <mxCell id="crRVYx3Tnt2rc7D0dL9c-10" value="" style="rounded=0;whiteSpace=wrap;html=1;sketch=1;hachureGap=4;jiggle=2;curveFitting=1;fontFamily=Architects Daughter;fontSource=https%3A%2F%2Ffonts.googleapis.com%2Fcss%3Ffamily%3DArchitects%2BDaughter;fontSize=20;fillColor=#dae8fc;strokeColor=#6c8ebf;" vertex="1" parent="1">
          <mxGeometry x="11" y="-142" width="474" height="60" as="geometry" />
        </mxCell>
        <mxCell id="crRVYx3Tnt2rc7D0dL9c-11" value="" style="endArrow=none;html=1;rounded=0;sketch=1;hachureGap=4;jiggle=2;curveFitting=1;fontFamily=Architects Daughter;fontSource=https%3A%2F%2Ffonts.googleapis.com%2Fcss%3Ffamily%3DArchitects%2BDaughter;fontSize=16;entryX=0;entryY=0;entryDx=0;entryDy=0;exitX=0;exitY=1;exitDx=0;exitDy=0;" edge="1" parent="1" source="crRVYx3Tnt2rc7D0dL9c-10" target="crRVYx3Tnt2rc7D0dL9c-9">
          <mxGeometry width="50" height="50" relative="1" as="geometry">
            <mxPoint x="11" y="-148" as="sourcePoint" />
            <mxPoint x="61" y="-198" as="targetPoint" />
          </mxGeometry>
        </mxCell>
        <mxCell id="crRVYx3Tnt2rc7D0dL9c-12" value="Conduction band" style="text;html=1;strokeColor=none;fillColor=none;align=center;verticalAlign=middle;whiteSpace=wrap;rounded=0;fontSize=20;fontFamily=Architects Daughter;" vertex="1" parent="1">
          <mxGeometry x="180" y="-343" width="166" height="30" as="geometry" />
        </mxCell>
        <mxCell id="crRVYx3Tnt2rc7D0dL9c-13" value="valence band" style="text;html=1;strokeColor=none;fillColor=none;align=center;verticalAlign=middle;whiteSpace=wrap;rounded=0;fontSize=20;fontFamily=Architects Daughter;" vertex="1" parent="1">
          <mxGeometry x="180" y="-127" width="166" height="30" as="geometry" />
        </mxCell>
        <mxCell id="crRVYx3Tnt2rc7D0dL9c-14" value="" style="endArrow=none;html=1;rounded=0;sketch=1;hachureGap=4;jiggle=2;curveFitting=1;fontFamily=Architects Daughter;fontSource=https%3A%2F%2Ffonts.googleapis.com%2Fcss%3Ffamily%3DArchitects%2BDaughter;fontSize=16;" edge="1" parent="1">
          <mxGeometry width="50" height="50" relative="1" as="geometry">
            <mxPoint x="11" y="-217" as="sourcePoint" />
            <mxPoint x="484" y="-219" as="targetPoint" />
          </mxGeometry>
        </mxCell>
        <mxCell id="crRVYx3Tnt2rc7D0dL9c-15" value="Fermi level" style="text;html=1;strokeColor=none;fillColor=none;align=center;verticalAlign=middle;whiteSpace=wrap;rounded=0;fontSize=20;fontFamily=Architects Daughter;" vertex="1" parent="1">
          <mxGeometry x="485" y="-233" width="96" height="30" as="geometry" />
        </mxCell>
      </root>
    </mxGraphModel>
  </diagram>
</mxfile>
